<?xml version="1.0" ?><svg id="Layer_1" style="enable-background:new 0 0 512 512;" version="1.1" viewBox="0 0 512 512" xml:space="preserve" xmlns="http://www.w3.org/2000/svg" xmlns:xlink="http://www.w3.org/1999/xlink"><style type="text/css">
	.st0{fill:#BB0D48;}
	.st1{fill:#152D39;}
	.st2{fill:#5CB8CD;}
	.st3{fill:#FB8A52;}
	.st4{fill:#DEE2E2;}
</style><g id="XMLID_3336_"><g id="XMLID_3337_"><polygon class="st0" id="XMLID_3338_" points="256,256 256,256 256,256   "/><polygon class="st0" id="XMLID_3339_" points="256,256 256,256 256,256   "/><path class="st1" d="M256,256L256,256c11.3,29.5,17.1,61.2,17.7,95.7c15.6,43,41.6,87.5,78,135.3    c-7.2-52.6-18.2-97.6-34-136C289.5,321.4,269.1,290.1,256,256C256,256,256,256,256,256z" id="XMLID_3340_"/><path class="st1" d="M160.3,273.7c-43,15.6-87.5,41.6-135.3,78c52.6-7.2,97.6-18.2,136-34    c29.7-28.2,60.9-48.6,95-61.7C226.5,267.3,194.8,273.1,160.3,273.7z" id="XMLID_3341_"/><path class="st1" d="M351.7,238.3c43-15.6,87.5-41.6,135.3-78c-52.6,7.2-97.6,18.2-136,34    c-29.7,28.2-60.9,48.6-95,61.7C285.5,244.7,317.2,238.9,351.7,238.3z" id="XMLID_3342_"/><polygon class="st0" id="XMLID_3343_" points="256,256 256,256 256,256 256,256 256,256   "/><path class="st1" d="M256,256L256,256L256,256c-11.3-29.5-17.1-61.2-17.7-95.7c-15.6-43-41.6-87.5-78-135.3    c7.2,52.6,18.2,97.6,34,136C222.5,190.6,242.9,221.9,256,256L256,256z" id="XMLID_3344_"/><polygon class="st0" id="XMLID_3345_" points="256,256 256,256 256,256   "/><path class="st0" d="M311.2,175.8c19.4-41.5,32.4-91.3,40.5-150.8c-32.1,42.3-56.2,81.9-72.1,120.2    c-1,40.9-8.7,77.5-23.6,110.8C268.9,227.1,287.2,200.6,311.2,175.8z" id="XMLID_3346_"/><rect class="st0" height="0" id="XMLID_3347_" width="0" x="256" y="256"/><path class="st0" d="M200.8,336.2c-19.4,41.5-32.4,91.3-40.5,150.8c32.1-42.3,56.2-81.9,72.1-120.2    c1-40.9,8.7-77.5,23.6-110.8C243.1,284.9,224.8,311.4,200.8,336.2z" id="XMLID_3348_"/><path class="st0" d="M256,256L256,256c28.9,12.9,55.4,31.2,80.2,55.2c41.5,19.4,91.3,32.4,150.8,40.5    c-42.3-32.1-81.9-56.2-120.2-72.1C325.9,278.6,289.3,270.9,256,256z" id="XMLID_3349_"/><path class="st0" d="M256,256L256,256c-28.9-12.9-55.4-31.2-80.2-55.2c-41.5-19.4-91.3-32.4-150.8-40.5    c42.3,32.1,81.9,56.2,120.2,72.1C186.1,233.4,222.7,241.1,256,256L256,256z" id="XMLID_3350_"/><path class="st2" d="M256,256L256,256c-25.8,25.8-57.2,46.1-95,61.7c-30.1,28.6-58.5,65.2-86.5,110.3    c52.7-28.9,94.6-58.9,126.4-91.8C215.4,304.9,233.6,278.4,256,256z" id="XMLID_3351_"/><path class="st2" d="M256,256c-25.8-25.8-46.1-57.2-61.7-95c-28.6-30.1-65.2-58.5-110.3-86.5    c28.9,52.7,58.9,94.6,91.8,126.4C207.1,215.4,233.6,233.6,256,256L256,256z" id="XMLID_3352_"/><path class="st2" d="M256,256c25.8,25.8,46.1,57.2,61.7,95c28.6,30.1,65.2,58.5,110.3,86.5    c-28.9-52.7-58.9-94.6-91.8-126.4C304.9,296.6,278.4,278.4,256,256L256,256z" id="XMLID_3353_"/><polygon class="st0" id="XMLID_3354_" points="256,256 256,256 256,256   "/><path class="st2" d="M256,256L256,256c25.8-25.8,57.2-46.1,95-61.7c30.1-28.6,58.5-65.2,86.5-110.3    c-52.7,28.9-94.6,58.9-126.4,91.8C296.6,207.1,278.4,233.6,256,256z" id="XMLID_3355_"/><path class="st3" d="M366.8,279.6c41.5,1.1,87.5-4.7,139.2-16.9c-57.7-16.8-108.5-25.2-154.3-24.4    C319.3,250.1,287.6,256,256,256C292.5,256,329,263.9,366.8,279.6z" id="XMLID_3356_"/><path class="st3" d="M279.6,145.2c1.1-41.5-4.7-87.5-16.9-139.2c-16.8,57.7-25.2,108.5-24.4,154.3    c11.8,32.5,17.7,64.1,17.7,95.7C256,219.5,263.9,183,279.6,145.2z" id="XMLID_3357_"/><path class="st3" d="M256,256L256,256L256,256c-36.5,0-73-7.9-110.8-23.6c-41.5-1.1-87.5,4.7-139.2,16.9    c57.7,16.8,108.5,25.2,154.3,24.4C192.7,261.9,224.4,256,256,256z" id="XMLID_3358_"/><path class="st3" d="M232.4,366.8c-1.1,41.5,4.7,87.5,16.9,139.2c16.8-57.7,25.2-108.5,24.4-154.3    C261.9,319.3,256,287.6,256,256C256,292.5,248.1,329,232.4,366.8z" id="XMLID_3359_"/><polygon class="st0" id="XMLID_3360_" points="256,256 256,256 256,256   "/></g><g id="XMLID_3361_"><g id="XMLID_3362_"><path class="st4" d="M310.5,142.8h-5v-20.7h-5.2v-3.8l10.2-0.9V142.8z" id="XMLID_3367_"/></g><g id="XMLID_3369_"><path class="st4" d="M391.7,219.2h-16.8v-3.3l7.8-8.8c1.2-1.4,2-2.5,2.5-3.5c0.5-0.9,0.7-1.8,0.7-2.6     c0-1-0.3-1.9-0.8-2.5c-0.5-0.6-1.3-0.9-2.3-0.9c-1.1,0-1.9,0.4-2.5,1.2c-0.6,0.8-0.9,1.8-0.9,3h-4.9l0-0.1     c-0.1-2.2,0.7-4.1,2.2-5.7c1.5-1.5,3.6-2.3,6.2-2.3c2.6,0,4.6,0.7,6,2c1.4,1.3,2.1,3.1,2.1,5.3c0,1.5-0.4,2.9-1.2,4.1     c-0.8,1.2-2.2,3-4.1,5.2l-4.1,5l0,0.1h10.3V219.2z" id="XMLID_3374_"/></g><g id="XMLID_3376_"><path class="st4" d="M380.9,304.1c1.2,0,2.1-0.3,2.6-0.9c0.6-0.6,0.9-1.5,0.9-2.6c0-0.9-0.3-1.7-0.9-2.3     c-0.6-0.6-1.4-0.9-2.5-0.9c-0.9,0-1.7,0.3-2.3,0.8c-0.6,0.6-0.9,1.3-0.9,2.1h-4.8l0-0.1c-0.1-1.9,0.7-3.5,2.2-4.8     c1.6-1.3,3.5-1.9,5.8-1.9c2.6,0,4.6,0.6,6.1,1.8c1.5,1.2,2.3,2.9,2.3,5.2c0,1.1-0.3,2.2-1,3.1c-0.7,0.9-1.5,1.7-2.7,2.2     c1.3,0.5,2.3,1.2,3,2.2c0.7,1,1.1,2.2,1.1,3.6c0,2.3-0.8,4-2.5,5.3c-1.6,1.3-3.7,1.9-6.3,1.9c-2.3,0-4.2-0.6-5.9-1.8     c-1.7-1.2-2.5-2.9-2.4-5.2l0-0.1h4.8c0,0.9,0.3,1.7,1,2.3c0.7,0.6,1.5,0.9,2.5,0.9c1.1,0,2.1-0.3,2.8-1c0.7-0.7,1.1-1.5,1.1-2.5     c0-1.3-0.3-2.3-1-2.9c-0.7-0.6-1.6-0.9-2.9-0.9h-2.7v-3.7H380.9z" id="XMLID_3381_"/></g><g id="XMLID_3383_"><path class="st4" d="M311.9,382h2.9v4h-2.9v5.5h-5.1v-5.5h-10.4l-0.2-3.1l10.6-16.9h5.2V382z M300.8,382h6v-9.3     l-0.1,0l-0.5,1.1L300.8,382z" id="XMLID_3389_"/></g><g id="XMLID_3392_"><path class="st4" d="M200.4,383.3l1.4-14h14v4H206l-0.7,5.9c0.5-0.3,1.1-0.6,1.8-0.9c0.7-0.2,1.5-0.3,2.3-0.4     c2.3,0,4.1,0.7,5.4,2.2c1.3,1.5,1.9,3.5,1.9,6.2c0,2.5-0.7,4.5-2.1,6.1c-1.4,1.6-3.5,2.4-6.4,2.4c-2.3,0-4.3-0.6-5.9-1.8     c-1.6-1.2-2.4-2.9-2.4-5l0-0.1l4.8-0.2c0,1,0.3,1.9,0.9,2.4c0.6,0.6,1.5,0.9,2.5,0.9c1.2,0,2.1-0.4,2.6-1.2     c0.5-0.8,0.8-1.9,0.8-3.3c0-1.4-0.3-2.6-0.9-3.5c-0.6-0.9-1.5-1.3-2.7-1.3c-1,0-1.7,0.2-2.2,0.5c-0.5,0.4-0.9,0.8-1.1,1.4     L200.4,383.3z" id="XMLID_3397_"/></g><g id="XMLID_3399_"><path class="st4" d="M130,294.9c1,0,1.9,0.1,2.7,0.3c0.8,0.2,1.6,0.4,2.4,0.8l-0.9,3.6     c-0.8-0.3-1.5-0.5-2.1-0.6c-0.6-0.1-1.3-0.2-2.1-0.2c-1.5,0-2.6,0.6-3.5,1.7c-0.9,1.1-1.3,2.7-1.3,4.6v0.8     c0.7-0.6,1.4-1.1,2.4-1.5c0.9-0.4,1.9-0.5,3.1-0.5c2.1,0,3.8,0.8,5,2.3c1.2,1.5,1.8,3.5,1.8,5.9c0,2.5-0.8,4.5-2.3,6.1     c-1.5,1.6-3.6,2.3-6,2.3c-2.6,0-4.7-0.9-6.3-2.7c-1.6-1.8-2.4-4.2-2.4-7.3v-5.2c0-3.1,0.9-5.7,2.8-7.5     C124.9,295.9,127.2,294.9,130,294.9z M129,307.6c-0.9,0-1.7,0.1-2.3,0.4c-0.6,0.3-1.1,0.7-1.5,1.2v1.3c0,1.9,0.3,3.4,1,4.4     c0.7,1,1.6,1.6,2.8,1.6c1,0,1.9-0.4,2.5-1.3s0.9-2,0.9-3.3c0-1.4-0.3-2.4-0.9-3.2C130.9,308,130,307.6,129,307.6z" id="XMLID_3405_"/></g><g id="XMLID_3408_"><path class="st4" d="M141.7,199.3c-2.9,3.4-4.8,6.4-5.9,9.1c-1,2.7-1.6,5.8-1.6,9.3v3.1h-5.1v-3.1     c0-3.5,0.6-6.8,1.9-9.7c1.3-2.9,3.2-5.8,5.7-8.7h-13v-3.9h17.9V199.3z" id="XMLID_3413_"/></g><g id="XMLID_3415_"><path class="st4" d="M215.1,125.6c0,1.2-0.3,2.3-1,3.3c-0.6,0.9-1.5,1.7-2.6,2.2c1.3,0.6,2.4,1.4,3.2,2.4     c0.8,1,1.2,2.2,1.2,3.6c0,2.3-0.8,4.1-2.4,5.3c-1.6,1.3-3.6,1.9-6.1,1.9c-2.6,0-4.7-0.6-6.4-1.9c-1.7-1.3-2.5-3.1-2.5-5.3     c0-1.3,0.4-2.5,1.2-3.6c0.8-1,1.9-1.8,3.3-2.4c-1.2-0.5-2.1-1.3-2.7-2.2c-0.7-0.9-1-2-1-3.3c0-2.2,0.7-3.9,2.2-5     c1.5-1.2,3.4-1.8,5.8-1.8c2.3,0,4.1,0.6,5.6,1.8C214.3,121.7,215.1,123.4,215.1,125.6z M210.9,136.7c0-1.1-0.3-2-1-2.7     c-0.7-0.7-1.5-1.1-2.5-1.1c-1.1,0-2,0.4-2.8,1.1c-0.7,0.7-1.1,1.6-1.1,2.7c0,1.1,0.4,2,1.1,2.7c0.7,0.7,1.7,1,2.8,1     c1,0,1.9-0.3,2.5-1C210.6,138.8,210.9,137.9,210.9,136.7z M210.1,125.8c0-1-0.3-1.7-0.8-2.3c-0.5-0.6-1.2-0.9-2-0.9     c-0.9,0-1.7,0.3-2.2,0.8c-0.6,0.6-0.8,1.3-0.8,2.3c0,1,0.3,1.8,0.8,2.4c0.6,0.6,1.3,0.9,2.2,0.9c0.8,0,1.5-0.3,2-0.9     C209.9,127.6,210.1,126.8,210.1,125.8z" id="XMLID_3422_"/></g></g></g></svg>