<?xml version="1.0" ?><svg height="512" preserveAspectRatio="xMidYMid" viewBox="0 0 512 512" width="512" xmlns="http://www.w3.org/2000/svg" xmlns:xlink="http://www.w3.org/1999/xlink"><defs><style>
      .cls-1, .cls-2, .cls-4 {
        fill: #dd4b39;
      }

      .cls-1, .cls-2, .cls-3, .cls-4 {
        fill-rule: evenodd;
      }

      .cls-2 {
        filter: url(#drop-shadow-1);
      }

      .cls-3 {
        fill: #fff;
      }

      .cls-4 {
        filter: url(#drop-shadow-2);
      }
    </style><filter filterUnits="userSpaceOnUse" id="drop-shadow-1"><feOffset dy="8" in="SourceAlpha"/><feGaussianBlur result="dropBlur" stdDeviation="4.472"/><feFlood flood-opacity="0.39"/><feComposite in2="dropBlur" operator="in" result="dropShadowComp"/><feComposite in="SourceGraphic" result="shadowed"/></filter><filter filterUnits="userSpaceOnUse" id="drop-shadow-2"><feOffset dy="9" in="SourceAlpha"/><feGaussianBlur result="dropBlur" stdDeviation="4.472"/><feFlood flood-opacity="0.39"/><feComposite in2="dropBlur" operator="in" result="dropShadowComp"/><feComposite in="SourceGraphic" result="shadowed"/></filter></defs><g><path class="cls-1" d="M256.500,511.000 C115.944,511.000 2.000,397.056 2.000,256.500 C2.000,205.645 16.924,158.279 42.620,118.528 L25.077,100.985 C19.616,95.524 19.616,86.669 25.077,81.207 L88.368,17.917 C93.829,12.455 102.684,12.455 108.146,17.917 L126.935,36.706 C127.085,36.857 127.216,37.019 127.358,37.174 C165.218,14.833 209.357,2.000 256.500,2.000 C397.056,2.000 511.000,115.944 511.000,256.500 C511.000,397.056 397.056,511.000 256.500,511.000 Z"/><path class="cls-2" d="M485.440,249.010 L464.513,254.617 C464.346,254.662 464.178,254.688 464.010,254.725 C464.351,290.565 455.419,326.963 436.200,360.250 C378.901,459.496 251.996,493.500 152.750,436.200 C53.504,378.901 19.500,251.996 76.800,152.750 C134.099,53.504 261.004,19.500 360.250,76.800 C396.158,97.531 423.519,127.378 441.112,161.727 L460.650,156.492 C466.733,154.862 472.985,158.472 474.615,164.555 L493.503,235.044 C495.133,241.127 491.523,247.380 485.440,249.010 Z"/><path class="cls-3" d="M423.000,243.704 C422.317,250.691 421.634,257.679 420.951,264.666 C420.695,268.244 420.439,271.824 420.183,275.402 C418.016,284.749 417.619,294.002 414.805,302.499 C408.228,322.359 400.803,337.499 389.966,352.857 C383.859,361.512 377.119,370.801 368.711,377.142 C364.844,380.059 361.642,384.193 357.700,387.111 C348.024,394.275 337.499,401.713 325.946,406.795 C318.219,410.194 310.230,413.229 301.874,415.997 C296.583,417.275 291.289,418.554 285.997,419.832 C282.047,420.849 278.362,420.437 274.218,421.366 C271.814,421.905 268.497,421.831 266.023,422.388 C264.402,422.388 262.779,422.388 261.158,422.388 C257.977,423.065 251.787,423.095 248.610,422.388 C247.808,422.210 247.021,422.133 246.241,422.095 C246.402,421.727 246.547,421.348 246.655,420.948 L250.410,407.031 C277.850,408.356 306.007,402.056 331.604,387.245 C383.796,357.045 410.751,299.926 404.979,243.704 C410.986,243.704 416.994,243.704 423.000,243.704 ZM358.980,145.288 C357.912,146.283 356.843,147.278 355.775,148.274 C309.578,107.683 240.761,99.039 184.373,131.666 C113.628,172.601 89.236,262.999 129.893,333.575 C143.529,357.246 162.756,375.671 184.952,388.175 C184.915,388.292 184.871,388.405 184.839,388.524 L180.817,403.431 C180.643,404.073 180.561,404.717 180.546,405.353 C170.528,400.537 161.594,393.863 153.092,387.623 C130.487,371.031 112.956,347.920 101.108,320.648 C96.315,309.616 93.906,297.664 90.609,284.860 C89.650,281.138 90.196,277.539 89.328,273.613 C88.278,268.860 87.374,255.662 88.560,250.351 C88.560,248.647 88.560,246.942 88.560,245.238 C88.902,241.830 89.243,238.421 89.584,235.013 C90.323,231.878 90.278,228.536 91.121,225.299 C92.716,219.172 94.113,212.760 95.986,207.149 C114.532,151.624 151.952,115.422 207.637,96.974 C215.082,94.507 223.151,93.757 231.196,91.861 C235.219,90.914 239.288,91.739 243.488,90.839 C250.097,89.423 265.775,89.948 271.913,91.350 C274.047,91.520 276.181,91.691 278.315,91.861 C282.924,92.713 287.534,93.566 292.143,94.418 C311.120,99.822 326.746,105.634 341.567,114.868 C346.931,118.210 351.938,121.433 356.931,125.093 C358.193,126.017 359.270,127.485 360.517,128.416 C362.504,129.901 367.389,133.028 368.199,135.318 C365.530,137.100 361.009,142.608 358.980,145.288 Z"/><path class="cls-4" d="M331.604,387.327 C306.007,402.142 277.850,408.445 250.410,407.119 L246.655,421.040 C245.486,425.375 241.029,427.954 236.700,426.802 L186.538,413.452 C182.209,412.299 179.648,407.852 180.817,403.518 L184.839,388.607 C184.871,388.488 184.915,388.375 184.952,388.258 C162.756,375.751 143.529,357.320 129.893,333.642 C89.236,263.047 113.628,172.624 184.373,131.678 C255.118,90.731 345.427,114.767 386.084,185.363 C426.741,255.958 402.349,346.381 331.604,387.327 Z"/><path class="cls-3" d="M266.272,245.055 C310.980,245.055 355.699,245.055 400.410,245.055 C406.044,299.942 379.732,355.706 328.787,385.188 C303.801,399.648 276.317,405.799 249.532,404.505 L245.866,418.092 C245.761,418.482 245.620,418.852 245.462,419.212 C242.591,419.073 239.841,419.642 237.026,418.999 C234.551,418.433 231.694,418.670 229.027,418.000 C223.555,416.626 217.555,415.888 212.529,414.257 C209.706,413.341 207.247,413.268 204.531,412.260 C197.450,409.635 190.507,406.982 183.784,404.025 C182.955,403.661 182.149,403.258 181.336,402.867 C181.351,402.246 181.431,401.617 181.600,400.990 L185.526,386.437 C185.558,386.321 185.601,386.211 185.637,386.097 C163.971,373.890 145.203,355.902 131.893,332.792 C92.207,263.892 116.016,175.640 185.072,135.677 C240.113,103.824 307.287,112.263 352.380,151.890 C352.173,152.083 351.966,152.276 351.759,152.469 C348.638,156.591 344.630,159.827 341.511,163.949 C340.345,165.030 339.178,166.112 338.011,167.193 C336.656,168.982 332.067,174.569 330.263,175.428 C329.176,173.846 327.546,172.833 326.013,171.685 C324.797,170.774 323.744,169.345 322.514,168.441 C319.657,166.340 316.821,164.624 313.765,162.701 C303.569,156.283 292.458,151.720 279.270,147.977 C274.771,147.228 270.271,146.479 265.772,145.731 C264.855,145.731 263.939,145.731 263.022,145.731 C258.082,144.663 249.470,144.611 244.525,145.731 C242.859,145.814 241.192,145.897 239.526,145.980 C233.679,147.356 227.746,147.676 222.278,149.474 C189.415,160.283 164.337,180.929 151.038,211.115 C148.854,216.074 147.584,220.842 145.789,226.339 C141.186,240.434 139.216,265.922 143.789,281.990 C145.980,289.689 148.024,297.104 151.038,303.952 C161.790,328.377 182.824,349.364 207.280,360.102 C211.258,361.849 214.990,362.791 219.278,364.345 C224.886,366.376 231.360,367.313 237.776,368.837 C241.237,369.659 244.866,368.803 248.524,369.586 C252.438,370.423 259.123,370.163 262.772,369.336 C266.318,368.533 269.456,369.196 272.771,368.338 C281.895,365.975 290.408,364.050 298.267,360.602 C320.518,350.840 337.069,334.071 349.260,314.183 C352.874,308.288 355.265,301.659 358.009,294.967 C327.433,294.967 296.848,294.967 266.272,294.967 C266.272,278.332 266.272,261.691 266.272,245.055 Z"/></g></svg>