<?xml version="1.0" ?><svg height="512" preserveAspectRatio="xMidYMid" viewBox="0 0 512 512" width="512" xmlns="http://www.w3.org/2000/svg" xmlns:xlink="http://www.w3.org/1999/xlink"><defs><style>
      .cls-1, .cls-2, .cls-4 {
        fill: #3b5998;
      }

      .cls-1, .cls-2, .cls-3, .cls-4, .cls-5 {
        fill-rule: evenodd;
      }

      .cls-2 {
        filter: url(#drop-shadow-1);
      }

      .cls-3, .cls-5 {
        fill: #fff;
      }

      .cls-3, .cls-4 {
        filter: url(#drop-shadow-2);
      }
    </style><filter filterUnits="userSpaceOnUse" id="drop-shadow-1"><feOffset dy="8" in="SourceAlpha"/><feGaussianBlur result="dropBlur" stdDeviation="4.472"/><feFlood flood-opacity="0.39"/><feComposite in2="dropBlur" operator="in" result="dropShadowComp"/><feComposite in="SourceGraphic" result="shadowed"/></filter><filter filterUnits="userSpaceOnUse" id="drop-shadow-2"><feOffset dy="9" in="SourceAlpha"/><feGaussianBlur result="dropBlur" stdDeviation="4.472"/><feFlood flood-opacity="0.39"/><feComposite in2="dropBlur" operator="in" result="dropShadowComp"/><feComposite in="SourceGraphic" result="shadowed"/></filter></defs><g><path class="cls-1" d="M256.500,511.000 C115.944,511.000 2.000,397.056 2.000,256.500 C2.000,205.645 16.924,158.279 42.620,118.528 L25.077,100.985 C19.616,95.524 19.616,86.669 25.077,81.207 L88.368,17.917 C93.829,12.455 102.684,12.455 108.146,17.917 L126.935,36.706 C127.085,36.857 127.216,37.019 127.358,37.174 C165.218,14.833 209.357,2.000 256.500,2.000 C397.056,2.000 511.000,115.944 511.000,256.500 C511.000,397.056 397.056,511.000 256.500,511.000 Z"/><path class="cls-2" d="M485.440,249.010 L464.513,254.617 C464.346,254.662 464.178,254.688 464.010,254.725 C464.351,290.565 455.419,326.963 436.200,360.250 C378.901,459.496 251.996,493.500 152.750,436.200 C53.504,378.901 19.500,251.996 76.800,152.750 C134.099,53.504 261.004,19.500 360.250,76.800 C396.158,97.531 423.519,127.378 441.112,161.727 L460.650,156.492 C466.733,154.862 472.985,158.472 474.615,164.555 L493.503,235.044 C495.133,241.127 491.523,247.380 485.440,249.010 Z"/><path class="cls-3" d="M226.285,113.875 C227.352,113.013 228.420,112.151 229.487,111.290 C229.487,110.844 229.487,110.397 229.487,109.951 C231.035,108.613 232.582,107.274 234.130,105.936 C234.351,105.489 234.572,105.043 234.793,104.597 C235.235,104.597 235.677,104.597 236.119,104.597 C237.004,103.482 237.888,102.366 238.772,101.251 C239.214,101.251 239.657,101.251 240.099,101.251 C240.541,100.581 240.983,99.912 241.425,99.243 C241.867,99.243 242.309,99.243 242.752,99.243 C242.973,98.797 243.194,98.350 243.415,97.904 C244.299,97.681 245.183,97.458 246.068,97.235 C246.289,96.789 246.510,96.343 246.731,95.897 C247.615,95.673 248.499,95.450 249.384,95.227 C249.384,95.004 249.384,94.781 249.384,94.558 C249.826,94.558 250.268,94.558 250.710,94.558 C250.710,94.335 250.710,94.112 250.710,93.889 C252.036,93.443 253.363,92.996 254.689,92.550 C254.689,92.327 254.689,92.104 254.689,91.881 C259.552,90.319 264.417,88.758 269.280,87.196 C271.933,86.973 274.586,86.750 277.239,86.527 C285.143,84.256 297.175,85.188 307.083,85.188 C316.809,85.188 326.538,85.188 336.265,85.188 C336.265,85.411 336.265,85.634 336.265,85.858 C336.928,85.858 337.591,85.858 338.254,85.858 C338.254,86.081 338.254,86.304 338.254,86.527 C338.917,86.750 339.581,86.973 340.244,87.196 C340.244,87.642 340.244,88.088 340.244,88.535 C340.686,88.758 341.128,88.981 341.570,89.204 C341.570,105.460 341.570,121.720 341.570,137.977 C308.467,114.317 266.544,105.351 226.285,113.875 ZM234.826,425.803 C239.132,426.955 243.566,424.375 244.729,420.041 L248.469,406.104 C259.470,406.639 270.585,405.947 281.605,403.944 C281.522,411.601 281.105,418.929 279.891,425.177 C278.677,425.843 277.143,427.405 275.912,427.854 C269.502,427.854 263.089,427.854 256.679,427.854 C242.272,427.854 226.222,428.448 212.907,427.185 C211.802,425.846 210.696,424.508 209.591,423.169 C209.591,421.797 209.591,420.424 209.591,419.051 L234.826,425.803 Z"/><path class="cls-4" d="M331.604,387.327 C306.007,402.142 277.850,408.445 250.410,407.119 L246.655,421.040 C245.486,425.375 241.029,427.954 236.700,426.802 L186.538,413.452 C182.209,412.299 179.648,407.852 180.817,403.518 L184.839,388.607 C184.871,388.488 184.915,388.375 184.952,388.258 C162.756,375.751 143.529,357.320 129.893,333.642 C89.236,263.047 113.628,172.624 184.373,131.678 C255.118,90.731 345.427,114.767 386.084,185.363 C426.741,255.958 402.349,346.381 331.604,387.327 Z"/><path class="cls-5" d="M337.900,151.348 C335.948,153.467 330.029,152.671 326.084,152.671 C318.306,152.671 307.717,151.456 301.139,153.332 C299.388,153.332 297.637,153.332 295.887,153.332 C295.887,153.553 295.887,153.773 295.887,153.994 C294.793,153.994 293.699,153.994 292.605,153.994 C292.605,154.214 292.605,154.435 292.605,154.655 C292.167,154.655 291.730,154.655 291.292,154.655 C291.292,154.876 291.292,155.096 291.292,155.317 C290.417,155.537 289.541,155.758 288.666,155.978 C288.447,156.419 288.229,156.860 288.010,157.301 C287.572,157.301 287.134,157.301 286.697,157.301 C285.384,159.285 284.071,161.270 282.758,163.254 C281.214,166.843 281.445,174.001 281.445,179.129 C281.445,189.050 281.445,198.974 281.445,208.895 C299.350,208.849 319.129,207.982 335.930,209.556 C337.024,210.879 338.119,212.202 339.213,213.525 C339.213,233.588 339.213,253.656 339.213,273.718 C338.994,273.718 338.775,273.718 338.556,273.718 C338.337,274.600 338.118,275.482 337.900,276.364 C337.243,276.585 336.587,276.805 335.930,277.026 C335.930,277.246 335.930,277.467 335.930,277.687 C335.493,277.687 335.055,277.687 334.617,277.687 C334.617,277.907 334.617,278.128 334.617,278.348 C328.929,278.348 323.238,278.348 317.550,278.348 C305.516,278.348 293.479,278.348 281.445,278.348 C281.445,309.434 281.445,340.529 281.445,371.615 C281.445,381.463 281.963,392.575 281.816,403.013 C270.590,405.129 259.256,405.905 248.042,405.362 L244.344,419.121 C243.193,423.404 238.804,425.954 234.542,424.815 L210.549,418.406 C210.549,371.724 210.549,325.030 210.549,278.348 C195.140,278.428 175.081,279.858 161.972,277.026 C161.753,276.364 161.534,275.703 161.316,275.041 C160.878,274.821 160.440,274.600 160.003,274.380 C160.003,267.986 160.003,261.591 160.003,255.197 C160.003,241.088 160.003,226.974 160.003,212.864 C161.131,212.119 160.892,212.445 161.316,210.879 C161.972,210.659 162.629,210.438 163.285,210.218 C163.285,209.997 163.285,209.777 163.285,209.556 C163.941,209.556 164.598,209.556 165.254,209.556 C165.254,209.336 165.254,209.115 165.254,208.895 C180.351,208.895 195.452,208.895 210.549,208.895 C210.549,198.313 210.549,187.727 210.549,177.145 C210.549,171.841 210.020,164.814 211.206,160.608 C211.424,157.301 211.643,153.993 211.862,150.686 C212.081,150.686 212.300,150.686 212.518,150.686 C212.737,148.702 212.956,146.717 213.175,144.733 C213.394,144.733 213.613,144.733 213.831,144.733 C213.831,143.851 213.831,142.969 213.831,142.087 C214.050,142.087 214.269,142.087 214.488,142.087 C214.488,141.426 214.488,140.764 214.488,140.103 C214.707,140.103 214.925,140.103 215.144,140.103 C215.144,139.442 215.144,138.780 215.144,138.119 C215.363,138.119 215.582,138.119 215.801,138.119 C215.801,137.457 215.801,136.796 215.801,136.134 C216.019,136.134 216.238,136.134 216.457,136.134 C216.676,135.032 216.895,133.929 217.114,132.827 C217.332,132.827 217.551,132.827 217.770,132.827 C217.989,131.945 218.208,131.063 218.426,130.181 C218.645,130.181 218.864,130.181 219.083,130.181 C219.083,129.520 219.083,128.858 219.083,128.197 C219.520,127.976 219.958,127.756 220.396,127.535 C220.396,127.094 220.396,126.653 220.396,126.212 C220.615,126.212 220.833,126.212 221.052,126.212 C221.052,125.771 221.052,125.330 221.052,124.889 C221.271,124.889 221.490,124.889 221.709,124.889 C221.709,124.448 221.709,124.007 221.709,123.566 C221.927,123.566 222.146,123.566 222.365,123.566 C222.365,123.125 222.365,122.684 222.365,122.244 C222.803,122.023 223.240,121.803 223.678,121.582 C223.678,121.141 223.678,120.700 223.678,120.259 C224.116,120.039 224.553,119.818 224.991,119.598 C224.991,119.157 224.991,118.716 224.991,118.275 C225.647,117.834 226.304,117.393 226.960,116.952 C226.960,116.747 226.960,116.543 226.960,116.339 C266.942,108.144 308.503,117.317 341.182,141.057 C341.182,143.605 341.182,146.154 341.182,148.702 C339.212,150.007 340.564,150.571 337.900,151.348 Z"/></g></svg>