<?xml version="1.0" ?><svg height="512" preserveAspectRatio="xMidYMid" viewBox="0 0 512 512" width="512" xmlns="http://www.w3.org/2000/svg" xmlns:xlink="http://www.w3.org/1999/xlink"><defs><style>
      .cls-1 {
        fill: #d72253;
      }

      .cls-1, .cls-2, .cls-3, .cls-4 {
        fill-rule: evenodd;
      }

      .cls-2 {
        fill: #c9195e;
        filter: url(#drop-shadow-1);
      }

      .cls-3 {
        fill: #fff;
      }

      .cls-4 {
        fill: #bd1673;
        filter: url(#drop-shadow-2);
      }
    </style><filter filterUnits="userSpaceOnUse" id="drop-shadow-1"><feOffset dy="8" in="SourceAlpha"/><feGaussianBlur result="dropBlur" stdDeviation="4.472"/><feFlood flood-opacity="0.39"/><feComposite in2="dropBlur" operator="in" result="dropShadowComp"/><feComposite in="SourceGraphic" result="shadowed"/></filter><filter filterUnits="userSpaceOnUse" id="drop-shadow-2"><feOffset dy="9" in="SourceAlpha"/><feGaussianBlur result="dropBlur" stdDeviation="4.472"/><feFlood flood-opacity="0.39"/><feComposite in2="dropBlur" operator="in" result="dropShadowComp"/><feComposite in="SourceGraphic" result="shadowed"/></filter></defs><g><path class="cls-1" d="M256.500,511.000 C115.944,511.000 2.000,397.056 2.000,256.500 C2.000,205.645 16.924,158.279 42.620,118.528 L25.077,100.985 C19.616,95.524 19.616,86.669 25.077,81.207 L88.368,17.917 C93.829,12.455 102.684,12.455 108.146,17.917 L126.935,36.706 C127.085,36.857 127.216,37.019 127.358,37.174 C165.218,14.833 209.357,2.000 256.500,2.000 C397.056,2.000 511.000,115.944 511.000,256.500 C511.000,397.056 397.056,511.000 256.500,511.000 Z"/><path class="cls-2" d="M485.440,249.010 L464.513,254.617 C464.346,254.662 464.178,254.688 464.010,254.725 C464.351,290.565 455.419,326.963 436.200,360.250 C378.901,459.496 251.996,493.500 152.750,436.200 C53.504,378.901 19.500,251.996 76.800,152.750 C134.099,53.504 261.004,19.500 360.250,76.800 C396.158,97.531 423.519,127.378 441.112,161.727 L460.650,156.492 C466.733,154.862 472.985,158.472 474.615,164.555 L493.503,235.044 C495.133,241.127 491.523,247.380 485.440,249.010 Z"/><path class="cls-3" d="M408.583,279.206 C408.583,307.925 409.231,337.461 400.576,357.871 C394.068,373.219 382.101,386.821 368.548,395.204 C345.570,409.418 308.445,408.537 271.128,408.537 C270.757,408.537 270.387,408.537 270.016,408.537 C291.488,406.807 312.939,400.391 332.855,388.875 C404.303,347.559 428.937,256.321 387.876,185.088 C383.631,177.723 378.842,170.869 373.603,164.530 C371.755,160.020 369.514,155.852 366.546,151.874 C361.339,144.897 353.729,140.883 344.870,137.932 C298.863,105.537 236.262,100.791 184.162,130.918 C182.057,132.136 179.996,133.400 177.972,134.702 C158.399,140.146 145.027,148.754 137.676,166.541 C136.368,169.706 135.608,173.101 135.032,176.633 C104.024,222.476 99.748,283.715 129.140,334.705 C132.734,340.940 136.720,346.806 141.035,352.309 C144.399,359.099 148.921,364.849 155.025,369.205 C156.469,370.235 158.027,371.181 159.686,372.055 C167.458,378.887 175.870,384.812 184.748,389.809 C184.710,389.928 184.665,390.044 184.632,390.166 L180.570,405.211 C180.458,405.624 180.391,406.037 180.345,406.448 C175.066,405.878 169.812,405.437 165.034,403.871 C144.401,397.110 128.112,385.405 117.659,368.538 C111.046,357.867 108.891,344.700 105.648,330.539 C105.426,323.206 105.203,315.871 104.981,308.539 C103.650,302.591 104.314,293.611 104.314,286.539 C104.314,272.541 104.314,258.538 104.314,244.540 C104.314,218.136 102.248,185.769 108.984,165.207 C118.366,136.572 136.362,118.570 165.034,109.208 C172.665,106.717 181.497,107.064 189.723,105.208 C194.151,104.209 201.130,106.676 204.402,104.542 C227.309,104.542 250.223,104.542 273.130,104.542 C284.301,104.542 298.566,102.967 308.494,105.208 C313.387,105.208 318.281,105.208 323.174,105.208 C331.396,107.077 340.235,106.707 347.863,109.208 C363.758,114.420 380.306,123.792 389.232,135.875 C413.573,168.823 408.582,222.679 408.583,279.206 Z"/><path class="cls-4" d="M331.604,387.327 C306.007,402.142 277.850,408.445 250.410,407.119 L246.655,421.040 C245.486,425.375 241.029,427.954 236.700,426.802 L186.538,413.452 C182.209,412.299 179.648,407.852 180.817,403.518 L184.839,388.607 C184.871,388.488 184.915,388.375 184.952,388.258 C162.756,375.751 143.529,357.320 129.893,333.642 C89.236,263.047 113.628,172.624 184.373,131.678 C255.118,90.731 345.427,114.767 386.084,185.363 C426.741,255.958 402.349,346.381 331.604,387.327 Z"/><path class="cls-3" d="M376.559,187.110 C374.702,179.202 372.935,172.386 370.415,166.226 C375.535,172.429 380.213,179.135 384.361,186.341 C424.479,256.040 400.411,345.313 330.603,385.739 C311.065,397.053 290.017,403.317 268.953,404.978 C255.057,404.978 241.159,404.978 227.264,404.978 C220.153,404.978 211.103,405.682 205.098,404.326 C200.317,404.326 195.536,404.326 190.755,404.326 C187.754,403.644 184.669,403.267 181.593,402.934 C181.638,402.531 181.704,402.127 181.813,401.724 L185.781,387.002 C185.813,386.885 185.856,386.773 185.893,386.658 C177.250,381.785 169.073,375.987 161.501,369.334 C186.314,382.345 234.466,378.229 270.944,378.234 C298.278,378.237 333.381,380.109 351.133,369.102 C381.562,350.234 377.858,308.065 377.863,260.820 C377.865,245.149 380.013,221.417 377.211,209.289 C376.994,201.897 376.776,194.502 376.559,187.110 ZM342.342,140.201 C336.962,138.406 331.113,137.011 325.055,135.579 C317.668,135.361 310.277,135.144 302.889,134.927 C295.385,133.254 282.591,134.274 272.248,134.274 C251.315,134.274 227.882,134.384 209.010,134.274 C205.878,136.264 187.441,134.919 182.280,136.231 C181.257,136.491 180.265,136.765 179.275,137.041 C181.252,135.767 183.265,134.530 185.322,133.339 C236.226,103.860 297.391,108.504 342.342,140.201 ZM137.320,178.068 C136.441,183.471 136.007,189.204 134.688,194.938 C134.688,199.721 134.688,204.506 134.688,209.289 C132.048,221.273 134.038,244.068 134.036,259.516 C134.032,293.181 132.062,327.461 143.180,349.950 C138.966,344.570 135.073,338.834 131.563,332.736 C102.845,282.844 107.024,222.924 137.320,178.068 ZM327.011,285.608 C315.418,312.266 295.820,325.376 264.425,332.573 C252.368,335.337 235.734,330.394 228.568,327.355 C205.162,317.426 191.148,302.957 182.932,277.780 C180.735,271.047 177.284,258.087 179.672,247.774 C181.005,242.021 181.422,235.489 183.584,230.162 C190.945,212.019 203.984,196.462 220.745,187.763 C226.212,184.925 232.934,182.950 238.999,181.240 C241.741,180.466 245.383,181.312 247.474,179.935 C256.262,179.829 265.677,179.177 272.900,181.240 C301.814,189.499 319.814,206.565 328.967,234.728 C331.673,243.055 334.401,258.643 331.575,269.952 C330.054,275.170 328.532,280.390 327.011,285.608 ZM276.160,210.593 C268.926,207.536 260.928,206.584 250.734,206.679 C247.368,208.895 239.733,208.888 235.739,210.593 C225.273,215.062 214.742,225.530 210.313,236.033 C197.681,265.994 215.828,293.442 237.695,301.915 C243.027,303.981 252.437,307.907 261.165,305.829 C280.229,301.289 294.678,292.849 301.585,276.475 C313.599,247.998 296.489,219.183 276.160,210.593 ZM325.707,192.329 C319.202,188.281 313.970,175.627 319.840,166.889 C322.474,162.968 327.224,161.976 330.923,159.062 C346.061,158.765 345.528,162.959 352.437,170.151 C352.706,173.108 354.153,177.626 353.089,181.240 C350.238,190.923 337.141,199.442 325.707,192.329 Z"/></g></svg>