<?xml version="1.0" ?><svg height="512" preserveAspectRatio="xMidYMid" viewBox="0 0 512 512" width="512" xmlns="http://www.w3.org/2000/svg" xmlns:xlink="http://www.w3.org/1999/xlink"><defs><style>
      .cls-1, .cls-2, .cls-4 {
        fill: #1da1f2;
      }

      .cls-1, .cls-2, .cls-3, .cls-4 {
        fill-rule: evenodd;
      }

      .cls-2 {
        filter: url(#drop-shadow-1);
      }

      .cls-3 {
        fill: #fff;
      }

      .cls-4 {
        filter: url(#drop-shadow-2);
      }
    </style><filter filterUnits="userSpaceOnUse" id="drop-shadow-1"><feOffset dy="8" in="SourceAlpha"/><feGaussianBlur result="dropBlur" stdDeviation="4.472"/><feFlood flood-opacity="0.39"/><feComposite in2="dropBlur" operator="in" result="dropShadowComp"/><feComposite in="SourceGraphic" result="shadowed"/></filter><filter filterUnits="userSpaceOnUse" id="drop-shadow-2"><feOffset dy="9" in="SourceAlpha"/><feGaussianBlur result="dropBlur" stdDeviation="4.472"/><feFlood flood-opacity="0.39"/><feComposite in2="dropBlur" operator="in" result="dropShadowComp"/><feComposite in="SourceGraphic" result="shadowed"/></filter></defs><g><path class="cls-1" d="M256.500,511.000 C115.944,511.000 2.000,397.056 2.000,256.500 C2.000,205.645 16.924,158.279 42.620,118.528 L25.077,100.985 C19.616,95.524 19.616,86.669 25.077,81.207 L88.368,17.917 C93.829,12.455 102.684,12.455 108.146,17.917 L126.935,36.706 C127.085,36.857 127.216,37.019 127.358,37.174 C165.218,14.833 209.357,2.000 256.500,2.000 C397.056,2.000 511.000,115.944 511.000,256.500 C511.000,397.056 397.056,511.000 256.500,511.000 Z"/><path class="cls-2" d="M485.440,249.010 L464.513,254.617 C464.346,254.662 464.178,254.688 464.010,254.725 C464.351,290.565 455.419,326.963 436.200,360.250 C378.901,459.496 251.996,493.500 152.750,436.200 C53.504,378.901 19.500,251.996 76.800,152.750 C134.099,53.504 261.004,19.500 360.250,76.800 C396.158,97.531 423.519,127.378 441.112,161.727 L460.650,156.492 C466.733,154.862 472.985,158.472 474.615,164.555 L493.503,235.044 C495.133,241.127 491.523,247.380 485.440,249.010 Z"/><path class="cls-3" d="M387.389,165.777 C390.770,163.696 398.214,163.894 402.401,162.596 C408.140,160.817 413.907,157.192 420.000,156.235 C420.000,156.411 420.000,156.588 420.000,156.765 C417.596,158.656 416.626,161.638 414.824,164.187 C410.257,170.645 403.556,177.448 397.742,182.742 C396.282,184.072 391.785,186.724 389.195,188.805 C389.195,188.805 389.195,188.805 389.195,188.805 C388.827,188.140 388.464,187.474 388.084,186.813 C371.040,157.163 345.269,135.716 315.873,123.821 C322.178,123.025 328.790,123.135 335.109,124.956 C344.424,127.641 353.286,131.563 360.473,136.619 C363.895,139.027 365.905,144.420 370.825,145.102 C372.679,143.896 375.187,144.296 377.554,143.511 C382.186,141.976 387.349,140.778 392.048,138.740 C398.377,135.995 404.577,131.114 411.200,129.197 C411.200,129.551 411.200,129.904 411.200,130.258 C408.479,133.860 407.857,139.084 405.506,142.981 C400.422,151.410 392.590,160.693 383.766,165.247 C383.766,165.424 383.766,165.601 383.766,165.777 C384.974,165.777 386.182,165.777 387.389,165.777 ZM186.839,390.440 L186.297,392.455 C180.927,391.576 176.146,392.890 171.021,391.620 C160.570,389.030 149.740,386.894 140.481,383.668 C126.197,378.690 114.164,373.576 102.694,366.173 C100.753,364.920 98.579,364.555 97.000,362.992 C104.313,363.171 116.249,365.273 123.917,363.522 C132.368,361.593 140.838,360.846 148.710,358.952 C148.710,358.952 148.710,358.952 148.710,358.952 C159.787,371.641 172.765,382.074 186.954,390.085 C186.916,390.204 186.872,390.319 186.839,390.440 ZM113.046,189.104 C111.481,184.110 109.219,175.080 110.458,168.958 C110.458,166.131 110.458,163.303 110.458,160.476 C111.888,154.450 115.402,138.879 119.776,136.619 C119.776,136.796 119.776,136.973 119.776,137.149 C127.056,143.992 132.554,153.272 140.481,159.416 C142.915,161.302 145.381,163.192 147.879,165.073 C136.584,178.299 127.821,193.278 121.813,209.236 C118.127,203.150 115.279,196.225 113.046,189.104 ZM113.497,242.481 C113.497,242.481 113.497,242.481 113.497,242.481 C111.184,235.574 109.752,227.874 109.423,219.322 C109.984,218.840 109.467,219.364 109.941,218.792 C112.481,219.982 114.992,221.156 117.593,222.224 C115.763,228.869 114.394,235.639 113.497,242.481 Z"/><path class="cls-4" d="M331.604,387.327 C306.007,402.142 277.850,408.445 250.410,407.119 L246.655,421.040 C245.486,425.375 241.029,427.954 236.700,426.802 L186.538,413.452 C182.209,412.299 179.648,407.852 180.817,403.518 L184.839,388.607 C184.871,388.488 184.915,388.375 184.952,388.258 C162.756,375.751 143.529,357.320 129.893,333.642 C89.236,263.047 113.628,172.624 184.373,131.678 C255.118,90.731 345.427,114.767 386.084,185.363 C426.741,255.958 402.349,346.381 331.604,387.327 Z"/><path class="cls-3" d="M383.677,187.155 C384.050,187.802 384.406,188.453 384.767,189.103 C383.881,189.813 383.218,190.456 382.995,190.951 C382.995,197.344 382.995,203.740 382.995,210.133 C381.231,213.237 382.884,218.708 381.979,222.576 C380.678,228.141 380.560,234.346 378.931,240.204 C373.052,261.342 366.254,279.817 357.087,297.234 C353.707,303.654 348.514,309.643 344.386,315.380 C323.128,344.926 295.561,365.626 259.040,379.668 C251.049,382.741 243.442,383.170 234.655,385.371 C224.275,387.970 199.860,391.466 186.902,388.482 C186.474,388.383 186.058,388.330 185.638,388.261 L186.170,386.291 C186.202,386.174 186.245,386.064 186.281,385.949 C172.356,378.116 159.631,367.899 148.759,355.495 C151.751,354.778 154.658,353.897 157.438,352.708 C170.977,346.916 182.244,339.630 193.506,331.970 C193.506,331.797 193.506,331.624 193.506,331.452 C191.305,331.452 189.103,331.452 186.902,331.452 C185.393,330.482 183.363,331.000 181.314,330.415 C176.742,328.859 172.169,327.304 167.598,325.749 C155.221,319.998 135.587,301.459 133.561,285.828 C139.522,286.021 158.908,288.027 161.502,283.754 C160.824,283.754 160.147,283.754 159.470,283.754 C158.289,282.914 157.052,283.330 155.405,282.717 C150.699,280.964 145.385,278.631 141.181,275.977 C129.139,268.375 119.379,257.038 114.190,241.595 C115.071,234.904 116.414,228.284 118.211,221.785 C124.173,224.225 130.632,226.091 139.149,226.206 C139.149,226.033 139.149,225.860 139.149,225.687 C132.108,222.056 126.648,216.151 122.352,209.083 C128.249,193.478 136.849,178.829 147.934,165.895 C175.600,186.663 207.676,206.341 253.960,207.023 C253.521,201.412 251.056,194.270 252.436,187.840 C253.494,182.911 253.497,177.396 254.976,172.805 C260.911,154.382 272.816,139.857 289.521,132.365 C295.396,129.731 303.779,126.689 312.807,125.553 C341.657,137.185 366.950,158.159 383.677,187.155 Z"/></g></svg>