<?xml version="1.0" ?><svg height="512" preserveAspectRatio="xMidYMid" viewBox="0 0 512 512" width="512" xmlns="http://www.w3.org/2000/svg" xmlns:xlink="http://www.w3.org/1999/xlink"><defs><style>
      .cls-1, .cls-2, .cls-4 {
        fill: #cd201f;
      }

      .cls-1, .cls-2, .cls-3, .cls-4 {
        fill-rule: evenodd;
      }

      .cls-2 {
        filter: url(#drop-shadow-1);
      }

      .cls-3 {
        fill: #fff;
      }

      .cls-4 {
        filter: url(#drop-shadow-2);
      }
    </style><filter filterUnits="userSpaceOnUse" id="drop-shadow-1"><feOffset dy="8" in="SourceAlpha"/><feGaussianBlur result="dropBlur" stdDeviation="4.472"/><feFlood flood-opacity="0.39"/><feComposite in2="dropBlur" operator="in" result="dropShadowComp"/><feComposite in="SourceGraphic" result="shadowed"/></filter><filter filterUnits="userSpaceOnUse" id="drop-shadow-2"><feOffset dy="9" in="SourceAlpha"/><feGaussianBlur result="dropBlur" stdDeviation="4.472"/><feFlood flood-opacity="0.39"/><feComposite in2="dropBlur" operator="in" result="dropShadowComp"/><feComposite in="SourceGraphic" result="shadowed"/></filter></defs><g><path class="cls-1" d="M256.500,511.000 C115.944,511.000 2.000,397.056 2.000,256.500 C2.000,205.645 16.924,158.279 42.620,118.528 L25.077,100.985 C19.616,95.524 19.616,86.669 25.077,81.207 L88.368,17.917 C93.829,12.455 102.684,12.455 108.146,17.917 L126.935,36.706 C127.085,36.857 127.216,37.019 127.358,37.174 C165.218,14.833 209.357,2.000 256.500,2.000 C397.056,2.000 511.000,115.944 511.000,256.500 C511.000,397.056 397.056,511.000 256.500,511.000 Z"/><path class="cls-2" d="M485.440,249.010 L464.513,254.617 C464.346,254.662 464.178,254.688 464.010,254.725 C464.351,290.565 455.419,326.963 436.200,360.250 C378.901,459.496 251.996,493.500 152.750,436.200 C53.504,378.901 19.500,251.996 76.800,152.750 C134.099,53.504 261.004,19.500 360.250,76.800 C396.158,97.531 423.519,127.378 441.112,161.727 L460.650,156.492 C466.733,154.862 472.985,158.472 474.615,164.555 L493.503,235.044 C495.133,241.127 491.523,247.380 485.440,249.010 Z"/><path class="cls-3" d="M404.720,263.931 C404.851,260.072 404.836,256.202 404.660,252.329 C408.107,254.114 411.554,255.899 415.000,257.683 C415.000,258.004 415.000,258.324 415.000,258.645 C411.574,260.407 408.146,262.169 404.720,263.931 ZM149.555,161.044 C149.555,147.439 149.555,133.831 149.555,120.226 C159.608,125.432 169.664,130.639 179.718,135.846 C168.335,143.028 158.251,151.532 149.555,161.044 ZM175.815,381.637 C167.062,386.138 158.308,390.640 149.555,395.140 C149.555,383.144 149.555,371.144 149.555,359.147 C157.478,367.771 166.309,375.289 175.815,381.637 Z"/><path class="cls-4" d="M331.604,387.327 C306.007,402.142 277.850,408.445 250.410,407.119 L246.655,421.040 C245.486,425.375 241.029,427.954 236.700,426.802 L186.538,413.452 C182.209,412.299 179.648,407.852 180.817,403.518 L184.839,388.607 C184.871,388.488 184.915,388.375 184.952,388.258 C162.756,375.751 143.529,357.320 129.893,333.642 C89.236,263.047 113.628,172.624 184.373,131.678 C255.118,90.731 345.427,114.767 386.084,185.363 C426.741,255.958 402.349,346.381 331.604,387.327 Z"/><path class="cls-3" d="M151.175,357.767 C151.175,292.374 151.175,226.976 151.175,161.584 C159.785,152.163 169.769,143.740 181.039,136.627 C255.277,175.081 329.527,213.541 403.762,251.994 C403.936,255.829 403.952,259.662 403.821,263.484 C328.285,302.337 252.733,341.199 177.194,380.053 C167.773,373.763 159.025,366.314 151.175,357.767 Z"/></g></svg>